<svg width="25" height="23" xmlns="http://www.w3.org/2000/svg" xmlns:xlink="http://www.w3.org/1999/xlink" xml:space="preserve" overflow="hidden"><defs><clipPath id="clip0"><rect x="558" y="183" width="25" height="23"/></clipPath></defs><g clip-path="url(#clip0)" transform="translate(-558 -183)"><path d="M2.15712 1.38889C1.70139 1.38889 1.29774 1.68837 1.16319 2.1224L0.0390625 5.77257C0.0130208 5.85938 0 5.95052 0 6.03733 0 6.5408 0.403646 6.94444 0.907118 6.94444L4.98698 6.94444 6.09809 1.38889 2.15712 1.38889ZM11.8056 6.94444 11.8056 1.38889 7.51302 1.38889 6.40191 6.94444 11.8056 6.94444ZM13.1944 6.94444 18.5981 6.94444 17.487 1.38889 13.1944 1.38889 13.1944 6.94444ZM20.013 6.94444 24.0929 6.94444C24.592 6.94444 25 6.5408 25 6.03733 25 5.94618 24.987 5.85938 24.9609 5.77257L23.8368 2.1224C23.7023 1.68837 23.2986 1.38889 22.8429 1.38889L18.9019 1.38889 20.013 6.94444ZM1.38889 8.33333 1.5625 9.72222 1.38889 9.72222C0.62066 9.72222 0 10.3429 0 11.1111 0 11.8793 0.62066 12.5 1.38889 12.5L1.90972 12.5 2.77778 19.4444C2.77778 20.2127 3.39844 20.8333 4.16667 20.8333 4.9349 20.8333 5.55556 20.2127 5.55556 19.4444L19.4444 19.4444C19.4444 20.2127 20.0651 20.8333 20.8333 20.8333 21.6016 20.8333 22.2222 20.2127 22.2222 19.4444L23.0903 12.5 23.6111 12.5C24.3793 12.5 25 11.8793 25 11.1111 25 10.3429 24.3793 9.72222 23.6111 9.72222L23.4375 9.72222 23.6111 8.33333 1.38889 8.33333Z" fill="#C00000" transform="matrix(1 0 0 1.035 558 183)"/></g></svg>