<?xml version="1.0" standalone="no"?>
<!DOCTYPE svg PUBLIC "-//W3C//DTD SVG 20010904//EN"
 "http://www.w3.org/TR/2001/REC-SVG-20010904/DTD/svg10.dtd">
<svg version="1.0" xmlns="http://www.w3.org/2000/svg"
 width="422.000000pt" height="514.000000pt" viewBox="0 0 422.000000 514.000000"
 preserveAspectRatio="xMidYMid meet">

<g transform="translate(0.000000,514.000000) scale(0.100000,-0.100000)"
fill="#000000" stroke="none">
<path d="M1260 4680 l0 -450 225 0 225 0 0 450 0 450 -225 0 -225 0 0 -450z"/>
<path d="M3140 4680 l0 -450 225 0 225 0 0 450 0 450 -225 0 -225 0 0 -450z"/>
<path d="M630 4590 l0 -360 225 0 225 0 0 360 0 360 -225 0 -225 0 0 -360z"/>
<path d="M1890 4530 l0 -300 220 0 220 0 0 300 0 300 -220 0 -220 0 0 -300z"/>
<path d="M2510 4455 l0 -225 225 0 225 0 0 225 0 225 -225 0 -225 0 0 -225z"/>
<path d="M10 4385 l0 -155 225 0 225 0 0 155 0 155 -225 0 -225 0 0 -155z"/>
<path d="M3760 4305 l0 -75 225 0 225 0 0 75 0 75 -225 0 -225 0 0 -75z"/>
</g>
</svg>
