<svg width="23" height="36" xmlns="http://www.w3.org/2000/svg" xmlns:xlink="http://www.w3.org/1999/xlink" xml:space="preserve" overflow="hidden"><defs><clipPath id="clip0"><rect x="516" y="343" width="23" height="36"/></clipPath></defs><g clip-path="url(#clip0)" transform="translate(-516 -343)"><path d="M22.5 10.125C22.5 15.7148 17.9648 20.25 12.375 20.25 6.78516 20.25 2.25 15.7148 2.25 10.125 2.25 4.53516 6.78516 0 12.375 0 17.9648 0 22.5 4.53516 22.5 10.125ZM12.375 5.625C12.9938 5.625 13.5 5.11875 13.5 4.5 13.5 3.88125 12.9938 3.375 12.375 3.375 8.64844 3.375 5.625 6.39844 5.625 10.125 5.625 10.7438 6.13125 11.25 6.75 11.25 7.36875 11.25 7.875 10.7438 7.875 10.125 7.875 7.64297 9.89297 5.625 12.375 5.625ZM10.125 33.75 10.125 22.2961C10.8562 22.4297 11.6086 22.5 12.375 22.5 13.1414 22.5 13.8938 22.4297 14.625 22.2961L14.625 33.75C14.625 34.9945 13.6195 36 12.375 36 11.1305 36 10.125 34.9945 10.125 33.75Z" fill="#2F5597" transform="matrix(1.02222 0 0 1 516 343)"/></g></svg>